<svg width="112" height="31" viewBox="0 0 112 31" fill="none" xmlns="http://www.w3.org/2000/svg">
<path d="M4 23C4 27.4183 7.58172 31 12 31H100C104.418 31 108 27.4183 108 23V4C108 1.79086 109.791 0 112 0H0C2.20914 0 4 1.79086 4 4V23Z" fill="#3ABAAA"/>
<path d="M27.6934 20H26.3867V12.6875H22.1562V20H20.8379V11.5449H27.6934V20ZM34.2322 19.2617C33.7009 19.832 32.992 20.1172 32.1052 20.1172C31.2185 20.1172 30.5095 19.832 29.9783 19.2617C29.447 18.6875 29.1814 17.9062 29.1814 16.918C29.1814 15.9336 29.447 15.1562 29.9783 14.5859C30.5095 14.0117 31.2185 13.7246 32.1052 13.7246C32.992 13.7246 33.7009 14.0117 34.2322 14.5859C34.7634 15.1562 35.0291 15.9336 35.0291 16.918C35.0291 17.9062 34.7634 18.6875 34.2322 19.2617ZM32.1052 19.0742C32.6091 19.0742 33.0076 18.8848 33.3005 18.5059C33.5935 18.127 33.74 17.5977 33.74 16.918C33.74 16.2422 33.5916 15.7148 33.2947 15.3359C33.0017 14.957 32.6052 14.7676 32.1052 14.7676C31.6052 14.7676 31.2068 14.957 30.9099 15.3359C30.617 15.7148 30.4705 16.2422 30.4705 16.918C30.4705 17.5977 30.617 18.127 30.9099 18.5059C31.2068 18.8848 31.6052 19.0742 32.1052 19.0742ZM40.355 18.998V14.8379H38.2105L38.0405 17.1934C37.9898 17.9824 37.8296 18.5684 37.5601 18.9512V18.998H40.355ZM36.8511 21.6172H35.6851V18.998H36.1831C36.5894 18.7441 36.8277 18.125 36.898 17.1406L37.1206 13.8359H41.6148V18.998H42.5698V21.6172H41.398V20H36.8511V21.6172ZM46.1673 16.7305L49.0032 20H47.4153L44.972 17.1582H44.9251V20H43.6653V13.8359H44.9251V16.4727H44.972L47.386 13.8359H48.8977L46.1673 16.7305ZM51.8506 17.1934C51.8272 17.5605 51.7901 17.8848 51.7393 18.166C51.6885 18.4473 51.6143 18.7109 51.5166 18.957C51.419 19.1992 51.2998 19.4004 51.1592 19.5605C51.0186 19.7168 50.8428 19.8398 50.6319 19.9297C50.4248 20.0156 50.1846 20.0586 49.9112 20.0586C49.7393 20.0586 49.5967 20.0371 49.4834 19.9941V18.8809C49.5889 18.9121 49.7002 18.9277 49.8174 18.9277C50.0987 18.9277 50.3057 18.7754 50.4385 18.4707C50.5713 18.166 50.6573 17.7227 50.6963 17.1406L50.9073 13.8359H55.1787V20H53.919V14.8379H52.0205L51.8506 17.1934ZM61.9227 20.1172C61.0945 20.1172 60.4285 19.8711 59.9246 19.3789C59.4207 18.8828 59.1336 18.1953 59.0633 17.3164H58.0379V20H56.7781V13.8359H58.0379V16.3203H59.0867C59.1883 15.5039 59.4891 14.8672 59.9891 14.4102C60.4891 13.9531 61.1336 13.7246 61.9227 13.7246C62.8172 13.7246 63.5203 14.0098 64.032 14.5801C64.5477 15.1465 64.8055 15.9258 64.8055 16.918C64.8055 17.9141 64.5477 18.6973 64.032 19.2676C63.5203 19.834 62.8172 20.1172 61.9227 20.1172ZM60.7508 18.5C61.0281 18.8711 61.4188 19.0566 61.9227 19.0566C62.4266 19.0566 62.8172 18.8711 63.0945 18.5C63.3719 18.125 63.5105 17.5977 63.5105 16.918C63.5105 16.2383 63.3719 15.7129 63.0945 15.3418C62.8172 14.9707 62.4266 14.7852 61.9227 14.7852C61.4188 14.7852 61.0281 14.9707 60.7508 15.3418C60.4773 15.7129 60.3406 16.2383 60.3406 16.918C60.3406 17.5977 60.4773 18.125 60.7508 18.5ZM71.063 20H69.8091V17.375H69.7271C69.356 17.7266 68.8482 17.9023 68.2037 17.9023C67.4888 17.9023 66.9341 17.7012 66.5396 17.2988C66.1451 16.8965 65.9478 16.3535 65.9478 15.6699V13.8359H67.2076V15.5762C67.2076 15.9668 67.3111 16.2734 67.5181 16.4961C67.7252 16.7148 68.0201 16.8242 68.4029 16.8242C69.024 16.8242 69.4927 16.6367 69.8091 16.2617V13.8359H71.063V20ZM76.3245 15.1895C76.0472 14.8926 75.6898 14.7441 75.2523 14.7441C74.8148 14.7441 74.4515 14.8945 74.1624 15.1953C73.8734 15.4922 73.7132 15.877 73.682 16.3496H76.764C76.7484 15.873 76.6019 15.4863 76.3245 15.1895ZM76.7581 18.1895H77.9593C77.8695 18.7559 77.5804 19.2188 77.0921 19.5781C76.6038 19.9375 76.0081 20.1172 75.305 20.1172C74.4027 20.1172 73.6917 19.834 73.1722 19.2676C72.6566 18.6973 72.3988 17.9238 72.3988 16.9473C72.3988 15.9785 72.6566 15.1992 73.1722 14.6094C73.6917 14.0195 74.3851 13.7246 75.2523 13.7246C76.1038 13.7246 76.7796 14.0039 77.2796 14.5625C77.7796 15.1172 78.0296 15.8633 78.0296 16.8008V17.2344H73.6761V17.3105C73.6761 17.8496 73.8265 18.2812 74.1273 18.6055C74.428 18.9297 74.8304 19.0918 75.3343 19.0918C75.6898 19.0918 75.9945 19.0098 76.2484 18.8457C76.5023 18.6816 76.6722 18.4629 76.7581 18.1895ZM83.4024 20V17.3164H80.6134V20H79.3536V13.8359H80.6134V16.3203H83.4024V13.8359H84.6622V20H83.4024ZM88.4354 19.1035C88.8807 19.1035 89.2538 18.9688 89.5545 18.6992C89.8592 18.4258 90.0116 18.0898 90.0116 17.6914V17.2051L88.494 17.2988C88.1151 17.3262 87.8221 17.4199 87.6151 17.5801C87.412 17.7363 87.3104 17.9473 87.3104 18.2129C87.3104 18.4824 87.412 18.6992 87.6151 18.8633C87.8221 19.0234 88.0956 19.1035 88.4354 19.1035ZM88.0838 20.1055C87.4784 20.1055 86.9842 19.9336 86.6014 19.5898C86.2225 19.2461 86.0331 18.7988 86.0331 18.248C86.0331 17.709 86.2323 17.2812 86.6307 16.9648C87.0291 16.6445 87.5936 16.4648 88.3241 16.4258L90.0116 16.3262V15.8516C90.0116 15.5078 89.9022 15.2402 89.6834 15.0488C89.4647 14.8535 89.162 14.7559 88.7752 14.7559C88.4159 14.7559 88.1229 14.8359 87.8963 14.9961C87.6737 15.1562 87.5331 15.377 87.4745 15.6582H86.2791C86.3143 15.0879 86.5604 14.623 87.0174 14.2637C87.4745 13.9043 88.076 13.7246 88.8221 13.7246C89.5682 13.7246 90.162 13.9082 90.6034 14.2754C91.0487 14.6426 91.2713 15.1348 91.2713 15.752V20H90.0584V18.9863H90.0291C89.8534 19.3262 89.5858 19.5977 89.2264 19.8008C88.8709 20.0039 88.4901 20.1055 88.0838 20.1055Z" fill="white"/>
</svg>
